<?xml version="1.0" encoding="UTF-8" standalone="no"?>
<!-- Created with Inkscape (http://www.inkscape.org/) -->

<svg
   width="30in"
   height="18in"
   viewBox="0 0 762.00001 457.20001"
   version="1.1"
   id="svg5"
   inkscape:version="1.1.1 (3bf5ae0d25, 2021-09-20)"
   sodipodi:docname="face-plate-3.svg"
   xmlns:inkscape="http://www.inkscape.org/namespaces/inkscape"
   xmlns:sodipodi="http://sodipodi.sourceforge.net/DTD/sodipodi-0.dtd"
   xmlns="http://www.w3.org/2000/svg"
   xmlns:svg="http://www.w3.org/2000/svg">
  <sodipodi:namedview
     id="namedview7"
     pagecolor="#ffffff"
     bordercolor="#111111"
     borderopacity="1"
     inkscape:pageshadow="0"
     inkscape:pageopacity="0"
     inkscape:pagecheckerboard="1"
     inkscape:document-units="mm"
     showgrid="false"
     units="in"
     inkscape:zoom="1.1652435"
     inkscape:cx="495.60458"
     inkscape:cy="310.2356"
     inkscape:window-width="1920"
     inkscape:window-height="1009"
     inkscape:window-x="-8"
     inkscape:window-y="-8"
     inkscape:window-maximized="1"
     inkscape:current-layer="layer1" />
  <defs
     id="defs2">
    <marker
       id="DistanceX"
       orient="auto"
       refX="0.0"
       refY="0.0"
       style="overflow:visible">
      <path
         d="M 3,-3 L -3,3 M 0,-5 L  0,5"
         style="stroke:#000000; stroke-width:0.5"
         id="path826" />
    </marker>
    <pattern
       id="Hatch"
       patternUnits="userSpaceOnUse"
       width="8"
       height="8"
       x="0"
       y="0">
      <path
         d="M8 4 l-4,4"
         stroke="#000000"
         stroke-width="0.25"
         linecap="square"
         id="path829" />
      <path
         d="M6 2 l-4,4"
         stroke="#000000"
         stroke-width="0.25"
         linecap="square"
         id="path831" />
      <path
         d="M4 0 l-4,4"
         stroke="#000000"
         stroke-width="0.25"
         linecap="square"
         id="path833" />
    </pattern>
    <symbol
       id="*MODEL_SPACE" />
    <symbol
       id="*PAPER_SPACE" />
    <marker
       id="DistanceX-9"
       orient="auto"
       refX="0.0"
       refY="0.0"
       style="overflow:visible">
      <path
         d="M 3,-3 L -3,3 M 0,-5 L  0,5"
         style="stroke:#000000; stroke-width:0.5"
         id="path3196" />
    </marker>
    <pattern
       id="Hatch-7"
       patternUnits="userSpaceOnUse"
       width="8"
       height="8"
       x="0"
       y="0">
      <path
         d="M8 4 l-4,4"
         stroke="#000000"
         stroke-width="0.25"
         linecap="square"
         id="path3199" />
      <path
         d="M6 2 l-4,4"
         stroke="#000000"
         stroke-width="0.25"
         linecap="square"
         id="path3201" />
      <path
         d="M4 0 l-4,4"
         stroke="#000000"
         stroke-width="0.25"
         linecap="square"
         id="path3203" />
    </pattern>
    <symbol
       id="*MODEL_SPACE-5" />
    <symbol
       id="*PAPER_SPACE-8" />
    <marker
       id="DistanceX-2"
       orient="auto"
       refX="0.0"
       refY="0.0"
       style="overflow:visible">
      <path
         d="M 3,-3 L -3,3 M 0,-5 L  0,5"
         style="stroke:#000000; stroke-width:0.5"
         id="path7344" />
    </marker>
    <pattern
       id="Hatch-70"
       patternUnits="userSpaceOnUse"
       width="8"
       height="8"
       x="0"
       y="0">
      <path
         d="M8 4 l-4,4"
         stroke="#000000"
         stroke-width="0.25"
         linecap="square"
         id="path7347" />
      <path
         d="M6 2 l-4,4"
         stroke="#000000"
         stroke-width="0.25"
         linecap="square"
         id="path7349" />
      <path
         d="M4 0 l-4,4"
         stroke="#000000"
         stroke-width="0.25"
         linecap="square"
         id="path7351" />
    </pattern>
    <symbol
       id="*Model_Space" />
    <symbol
       id="*Paper_Space" />
    <symbol
       id="*Paper_Space0" />
    <symbol
       id="*D1" />
    <symbol
       id="*D2" />
    <clipPath
       clipPathUnits="userSpaceOnUse"
       id="clipPath7632">
      <path
         d="M 0,0 H 816 V 1056 H 0 Z"
         clip-rule="evenodd"
         id="path7630" />
    </clipPath>
    <clipPath
       clipPathUnits="userSpaceOnUse"
       id="clipPath7825">
      <path
         d="M 0,0 H 816 V 1056 H 0 Z"
         clip-rule="evenodd"
         id="path7823" />
    </clipPath>
    <clipPath
       clipPathUnits="userSpaceOnUse"
       id="clipPath7941">
      <path
         d="M 0,0 H 21967 V 40060 H 0 Z"
         id="path7939" />
    </clipPath>
    <clipPath
       clipPathUnits="userSpaceOnUse"
       id="clipPath15226">
      <path
         d="M 0,0 H 21967 V 40060 H 0 Z"
         id="path15224" />
    </clipPath>
  </defs>
  <g
     inkscape:label="Layer 1"
     inkscape:groupmode="layer"
     id="layer1">
    <path
       id="rect6822"
       style="fill:none;stroke:#000000;stroke-width:0.79375;stroke-miterlimit:4;stroke-dasharray:none"
       d="M 30.116762,22.191252 H 276.96998 c 1.83308,0 3.30881,1.475729 3.30881,3.308809 V 145.35328 c 0,1.83308 -1.47573,3.3088 -3.30881,3.3088 H 30.116762 c -1.83308,0 -3.308809,-1.47572 -3.308809,-3.3088 V 25.500061 c 0,-1.83308 1.475729,-3.308809 3.308809,-3.308809 z" />
    <path
       d="M 249.89564,137.3576 H 57.191104 v -9.525 a 9.5249999,9.5249999 0 0 0 -9.524999,-9.525 h -9.525 V 52.545736 h 9.525 a 9.5249999,9.5249999 0 0 0 9.524999,-9.525 v -9.525 H 249.89564 v 9.525 a 9.5249999,9.5249999 0 0 0 9.525,9.525 h 9.525 V 118.3076 h -9.525 a 9.5249999,9.5249999 0 0 0 -9.525,9.525 z"
       style="fill:none;stroke:#ff6600;stroke-width:0.79375;stroke-miterlimit:4;stroke-dasharray:none"
       id="path4528" />
    <path
       id="path6417"
       style="fill:none;stroke:#000000;stroke-width:0.79375;stroke-miterlimit:4;stroke-dasharray:none"
       d="m 42.827746,36.594875 a 1.5875,1.5875 0 0 1 -1.5875,1.5875 1.5875,1.5875 0 0 1 -1.5875,-1.5875 1.5875,1.5875 0 0 1 1.5875,-1.5875 1.5875,1.5875 0 0 1 1.5875,1.5875 z" />
    <path
       id="path6417-9"
       style="fill:none;stroke:#000000;stroke-width:0.79375;stroke-miterlimit:4;stroke-dasharray:none"
       d="m 267.434,36.594875 a 1.5875,1.5875 0 0 1 -1.5875,1.5875 1.5875,1.5875 0 0 1 -1.5875,-1.5875 1.5875,1.5875 0 0 1 1.5875,-1.5875 1.5875,1.5875 0 0 1 1.5875,1.5875 z" />
    <path
       id="path6417-9-7"
       style="fill:none;stroke:#000000;stroke-width:0.79375;stroke-miterlimit:4;stroke-dasharray:none"
       d="m 267.434,134.25845 a 1.5875,1.5875 0 0 1 -1.5875,1.5875 1.5875,1.5875 0 0 1 -1.5875,-1.5875 1.5875,1.5875 0 0 1 1.5875,-1.5875 1.5875,1.5875 0 0 1 1.5875,1.5875 z" />
    <path
       id="path6417-9-9"
       style="fill:none;stroke:#000000;stroke-width:0.79375;stroke-miterlimit:4;stroke-dasharray:none"
       d="m 42.827746,134.25845 a 1.5875,1.5875 0 0 1 -1.5875,1.5875 1.5875,1.5875 0 0 1 -1.5875,-1.5875 1.5875,1.5875 0 0 1 1.5875,-1.5875 1.5875,1.5875 0 0 1 1.5875,1.5875 z" />
    <g
       id="g7210"
       transform="translate(-40.644104,-8.5533522)"
       style="stroke-width:0.79375;stroke-miterlimit:4;stroke-dasharray:none">
      <path
         id="path7042"
         style="fill:none;stroke:#000000;stroke-width:0.79375;stroke-miterlimit:4;stroke-dasharray:none"
         d="m 131.10265,77.046684 a 12.251607,12.251607 0 0 1 -12.25161,12.251607 12.251607,12.251607 0 0 1 -12.2516,-12.251607 12.251607,12.251607 0 0 1 12.2516,-12.251607 12.251607,12.251607 0 0 1 12.25161,12.251607 z" />
      <path
         id="path7042-9-8"
         style="fill:none;stroke:#0000ff;stroke-width:0.79375;stroke-miterlimit:4;stroke-dasharray:none"
         d="M 135.18652,77.046684 A 16.335476,16.335476 0 0 1 118.85104,93.38216 16.335476,16.335476 0 0 1 102.51557,77.046684 16.335476,16.335476 0 0 1 118.85104,60.711208 16.335476,16.335476 0 0 1 135.18652,77.046684 Z" />
    </g>
    <path
       id="path7042-9"
       style="fill:none;stroke:#000000;stroke-width:0.79375;stroke-miterlimit:4;stroke-dasharray:none"
       d="m 133.34443,103.94749 a 12.251607,12.251607 0 0 1 -12.25161,12.2516 12.251607,12.251607 0 0 1 -12.25161,-12.2516 12.251607,12.251607 0 0 1 12.25161,-12.25161 12.251607,12.251607 0 0 1 12.25161,12.25161 z" />
    <path
       id="path16110"
       style="fill:none;stroke:#000000;stroke-width:0.79375;stroke-miterlimit:4;stroke-dasharray:none"
       d="m 166.17923,87.241569 a 12.251607,12.251607 0 0 1 -1.91747,0.150982 12.251607,12.251607 0 0 1 -12.25161,-12.251608 12.251607,12.251607 0 0 1 12.25161,-12.251605 12.251607,12.251607 0 0 1 1.91696,0.1509" />
    <path
       id="path7042-9-8-0"
       style="fill:none;stroke:#0000ff;stroke-width:0.79375;stroke-miterlimit:4;stroke-dasharray:none"
       d="m 137.4283,103.94749 a 16.335476,16.335476 0 0 1 -16.33548,16.33547 16.335476,16.335476 0 0 1 -16.33548,-16.33547 16.335476,16.335476 0 0 1 16.33548,-16.335479 16.335476,16.335476 0 0 1 16.33548,16.335479 z" />
    <g
       id="g9070"
       transform="translate(-6.663999,26.983815)"
       style="stroke:#000000;stroke-width:0.79375;stroke-miterlimit:4;stroke-dasharray:none;stroke-opacity:1" />
    <path
       style="fill:none;stroke:#000000;stroke-width:0.79375;stroke-linecap:butt;stroke-linejoin:miter;stroke-miterlimit:4;stroke-dasharray:none;stroke-opacity:1"
       d="m 243.28332,78.155912 h 0.11113 l 0.0582,-0.0053 0.0529,-0.01058 0.0582,-0.0053 0.0529,-0.01058 0.0529,-0.01588 0.0582,-0.01058 0.0529,-0.02117 0.0529,-0.01588 0.0529,-0.02117 0.0476,-0.02117 0.0529,-0.02117 0.0529,-0.02646 0.0476,-0.02646 0.0953,-0.0635 0.0423,-0.03175 0.0476,-0.03175 0.127,-0.111125 0.0794,-0.07937 0.037,-0.04233 0.0317,-0.04233 0.037,-0.04762 0.0635,-0.09525 0.0794,-0.142875 0.0212,-0.05292 0.0265,-0.05292 0.0159,-0.05292 0.0212,-0.05292 0.0317,-0.105833 0.0106,-0.05292 0.0106,-0.05821 0.0106,-0.05292 0.005,-0.05821 0.005,-0.05292 0.005,-0.05821 v -0.111125 l -0.005,-0.05821 -0.005,-0.05292 -0.005,-0.05821 -0.0212,-0.105833 -0.0106,-0.05821 -0.0476,-0.15875 -0.0212,-0.05292 -0.0212,-0.04763 -0.0265,-0.05292 -0.0212,-0.04762 -0.0265,-0.04763 -0.0317,-0.05292 -0.0265,-0.04233 -0.0317,-0.04762 -0.037,-0.04233 -0.0317,-0.04763 -0.037,-0.04233 -0.11642,-0.116417 -0.0847,-0.07408 -0.0476,-0.03175 -0.0423,-0.03175 -0.0952,-0.0635 -0.0476,-0.02646 -0.0529,-0.02646 -0.0476,-0.02117 -0.15875,-0.0635 -0.10583,-0.03175 -0.10584,-0.02117 -0.0582,-0.01058 -0.0529,-0.0053 -0.0582,-0.0053 -0.0529,-0.0053 h -0.16933 l -0.0529,0.0053 -0.0582,0.0053 -0.0529,0.01058 -0.0529,0.0053 -0.0582,0.01588 -0.0529,0.01058 -0.10584,0.03175 -0.10583,0.04233 -0.0476,0.02117 -0.0529,0.02646 -0.0952,0.05292 -0.0953,0.0635 -0.0423,0.03175 -0.0476,0.03175 -0.0423,0.03704 -0.11642,0.116417 -0.11113,0.127 -0.0635,0.09525 -0.0265,0.04233 -0.0317,0.05292 -0.0265,0.04763 -0.0212,0.04762 -0.0265,0.05292 -0.0159,0.05292 -0.0212,0.05292 -0.0476,0.15875 -0.0106,0.05292 -0.0106,0.05821 -0.0106,0.05292 -0.005,0.05292 -0.005,0.05821 v 0.164042 l 0.005,0.05821 0.005,0.05292 0.005,0.05821 0.0106,0.05292 0.0106,0.05821 0.0635,0.211667 0.0212,0.05292 0.0212,0.04762 0.0265,0.05292 0.0794,0.142876 0.0635,0.09525 0.037,0.04233 0.0317,0.04233 0.037,0.04233 0.0794,0.07938 0.127,0.111125 0.0423,0.03175 0.0952,0.0635 0.0953,0.05292 0.0529,0.02646 0.0476,0.02117 0.0529,0.02646 0.0529,0.01588 0.0529,0.02117 0.0529,0.01588 0.0529,0.01058 0.0529,0.01588 0.0529,0.01058 0.0582,0.0053 0.0529,0.01058 0.0582,0.0053 z"
       id="path13836" />
    <path
       style="fill:none;stroke:#000000;stroke-width:0.79375;stroke-linecap:butt;stroke-linejoin:miter;stroke-miterlimit:4;stroke-dasharray:none;stroke-opacity:1"
       d="m 191.25562,111.14418 c 0.52814,10e-4 1.04428,-0.27306 1.33549,-0.71458 0.34083,-0.50011 0.36162,-1.1947 0.0457,-1.71187 -0.32678,-0.56954 -1.02657,-0.89281 -1.6716,-0.76363 -0.65428,0.11308 -1.20713,0.66748 -1.29773,1.32818 -0.10878,0.62183 0.19386,1.28959 0.7345,1.61652 0.2524,0.16282 0.55501,0.24108 0.85366,0.24538 z"
       id="path13834" />
    <path
       style="fill:none;stroke:#000000;stroke-width:0.79375;stroke-linecap:butt;stroke-linejoin:miter;stroke-miterlimit:4;stroke-dasharray:none;stroke-opacity:1"
       d="m 243.28332,106.06418 h 0.11113 l 0.0582,-0.005 0.0529,-0.0106 0.0582,-0.005 0.0529,-0.0106 0.0529,-0.0159 0.0582,-0.0106 0.0529,-0.0212 0.0529,-0.0159 0.0529,-0.0212 0.0476,-0.0212 0.0529,-0.0212 0.0529,-0.0265 0.0476,-0.0265 0.0953,-0.0635 0.0423,-0.0318 0.0476,-0.0318 0.127,-0.11113 0.0794,-0.0794 0.037,-0.0423 0.0317,-0.0423 0.037,-0.0476 0.0635,-0.0952 0.0794,-0.14287 0.0212,-0.0529 0.0265,-0.0529 0.0159,-0.0529 0.0212,-0.0529 0.0317,-0.10583 0.0106,-0.0529 0.0106,-0.0582 0.0106,-0.0529 0.005,-0.0582 0.005,-0.0529 0.005,-0.0582 v -0.1111 l -0.005,-0.0582 -0.005,-0.0529 -0.005,-0.0582 -0.0212,-0.10583 -0.0106,-0.0582 -0.0476,-0.15875 -0.0212,-0.0529 -0.0212,-0.0476 -0.0265,-0.0529 -0.0212,-0.0476 -0.0265,-0.0529 -0.0317,-0.0476 -0.0265,-0.0423 -0.0317,-0.0476 -0.037,-0.0423 -0.0317,-0.0476 -0.037,-0.0423 -0.11642,-0.11642 -0.0847,-0.0741 -0.0476,-0.0318 -0.0423,-0.0318 -0.0952,-0.0635 -0.0476,-0.0265 -0.0529,-0.0265 -0.0476,-0.0212 -0.15875,-0.0635 -0.10583,-0.0318 -0.10584,-0.0212 -0.0582,-0.0106 -0.0529,-0.005 -0.0582,-0.005 -0.0529,-0.005 h -0.16933 l -0.0529,0.005 -0.0582,0.005 -0.0529,0.0106 -0.0529,0.005 -0.0582,0.0159 -0.0529,0.0106 -0.10584,0.0318 -0.10583,0.0423 -0.0476,0.0212 -0.0529,0.0265 -0.0952,0.0529 -0.0953,0.0635 -0.0423,0.0318 -0.0476,0.0318 -0.0423,0.037 -0.11642,0.11642 -0.11113,0.127 -0.0635,0.0952 -0.0265,0.0423 -0.0317,0.0529 -0.0265,0.0476 -0.0212,0.0476 -0.0265,0.0529 -0.0159,0.0529 -0.0212,0.0529 -0.0476,0.15875 -0.0106,0.0529 -0.0106,0.0582 -0.0106,0.0529 -0.005,0.0529 -0.005,0.0582 v 0.16404 l 0.005,0.0582 0.005,0.0529 0.005,0.0582 0.0106,0.0529 0.0106,0.0582 0.0635,0.21167 0.0212,0.0529 0.0212,0.0476 0.0265,0.0529 0.0794,0.14288 0.0635,0.0953 0.037,0.0423 0.0317,0.0423 0.037,0.0423 0.0794,0.0794 0.127,0.11112 0.0423,0.0317 0.0952,0.0635 0.0953,0.0529 0.0529,0.0265 0.0476,0.0212 0.0529,0.0265 0.0529,0.0159 0.0529,0.0212 0.0529,0.0159 0.0529,0.0106 0.0529,0.0159 0.0529,0.0106 0.0582,0.005 0.0529,0.0106 0.0582,0.005 z"
       id="path13832" />
    <path
       style="fill:none;stroke:#000000;stroke-width:0.79375;stroke-linecap:butt;stroke-linejoin:miter;stroke-miterlimit:4;stroke-dasharray:none;stroke-opacity:1"
       d="m 193.96866,58.777816 h 14.33783 33.45284"
       id="path13830"
       sodipodi:nodetypes="ccc" />
    <path
       style="fill:none;stroke:#000000;stroke-width:0.79375;stroke-linecap:butt;stroke-linejoin:miter;stroke-miterlimit:4;stroke-dasharray:none;stroke-opacity:1"
       d="m 166.91917,58.82015 0.254,-0.04233"
       id="path13828" />
    <path
       style="fill:none;stroke:#000000;stroke-width:0.79375;stroke-linecap:butt;stroke-linejoin:miter;stroke-miterlimit:4;stroke-dasharray:none;stroke-opacity:1"
       d="m 166.68633,58.925983 0.23284,-0.105833"
       id="path13826" />
    <path
       style="fill:none;stroke:#000000;stroke-width:0.79375;stroke-linecap:butt;stroke-linejoin:miter;stroke-miterlimit:4;stroke-dasharray:none;stroke-opacity:1"
       d="m 166.47467,59.07415 0.21166,-0.148167"
       id="path13824" />
    <path
       style="fill:none;stroke:#000000;stroke-width:0.79375;stroke-linecap:butt;stroke-linejoin:miter;stroke-miterlimit:4;stroke-dasharray:none;stroke-opacity:1"
       d="m 166.30533,59.285817 0.16934,-0.211667"
       id="path13822" />
    <path
       style="fill:none;stroke:#000000;stroke-width:0.79375;stroke-linecap:butt;stroke-linejoin:miter;stroke-miterlimit:4;stroke-dasharray:none;stroke-opacity:1"
       d="m 166.22067,59.51865 0.0847,-0.232833"
       id="path13820" />
    <path
       style="fill:none;stroke:#000000;stroke-width:0.79375;stroke-linecap:butt;stroke-linejoin:miter;stroke-miterlimit:4;stroke-dasharray:none;stroke-opacity:1"
       d="m 166.17833,59.793817 0.0423,-0.275167"
       id="path13818" />
    <path
       style="fill:none;stroke:#000000;stroke-width:0.79375;stroke-linecap:butt;stroke-linejoin:miter;stroke-miterlimit:4;stroke-dasharray:none;stroke-opacity:1"
       d="m 166.22067,111.33468 -0.0423,-0.254"
       id="path13816" />
    <path
       style="fill:none;stroke:#000000;stroke-width:0.79375;stroke-linecap:butt;stroke-linejoin:miter;stroke-miterlimit:4;stroke-dasharray:none;stroke-opacity:1"
       d="m 166.30533,111.56752 -0.0847,-0.23284"
       id="path13814" />
    <path
       style="fill:none;stroke:#000000;stroke-width:0.79375;stroke-linecap:butt;stroke-linejoin:miter;stroke-miterlimit:4;stroke-dasharray:none;stroke-opacity:1"
       d="m 166.47467,111.77918 -0.16934,-0.21166"
       id="path13812" />
    <path
       style="fill:none;stroke:#000000;stroke-width:0.79375;stroke-linecap:butt;stroke-linejoin:miter;stroke-miterlimit:4;stroke-dasharray:none;stroke-opacity:1"
       d="m 166.68633,111.94852 -0.21166,-0.16934"
       id="path13810" />
    <path
       style="fill:none;stroke:#000000;stroke-width:0.79375;stroke-linecap:butt;stroke-linejoin:miter;stroke-miterlimit:4;stroke-dasharray:none;stroke-opacity:1"
       d="m 166.91917,112.03321 -0.23284,-0.0847"
       id="path13808" />
    <path
       style="fill:none;stroke:#000000;stroke-width:0.79375;stroke-linecap:butt;stroke-linejoin:miter;stroke-miterlimit:4;stroke-dasharray:none;stroke-opacity:1"
       d="m 167.17317,112.07552 -0.254,-0.0423"
       id="path13806" />
    <path
       style="fill:none;stroke:#000000;stroke-width:0.79375;stroke-linecap:butt;stroke-linejoin:miter;stroke-miterlimit:4;stroke-dasharray:none;stroke-opacity:1"
       d="m 188.57077,112.03692 -21.3976,0.0386"
       id="path13804" />
    <path
       style="fill:none;stroke:#000000;stroke-width:0.79375;stroke-linecap:butt;stroke-linejoin:miter;stroke-miterlimit:4;stroke-dasharray:none;stroke-opacity:1"
       d="m 242.28849,112.07552 -45.80762,-0.0386"
       id="path13802" />
    <path
       style="fill:none;stroke:#000000;stroke-width:0.79375;stroke-linecap:butt;stroke-linejoin:miter;stroke-miterlimit:4;stroke-dasharray:none;stroke-opacity:1"
       d="m 242.54249,112.03321 -0.254,0.0423"
       id="path13800" />
    <path
       style="fill:none;stroke:#000000;stroke-width:0.79375;stroke-linecap:butt;stroke-linejoin:miter;stroke-miterlimit:4;stroke-dasharray:none;stroke-opacity:1"
       d="m 242.77532,111.94852 -0.23283,0.0847"
       id="path13798" />
    <path
       style="fill:none;stroke:#000000;stroke-width:0.79375;stroke-linecap:butt;stroke-linejoin:miter;stroke-miterlimit:4;stroke-dasharray:none;stroke-opacity:1"
       d="m 242.98699,111.77918 -0.21167,0.16934"
       id="path13796" />
    <path
       style="fill:none;stroke:#000000;stroke-width:0.79375;stroke-linecap:butt;stroke-linejoin:miter;stroke-miterlimit:4;stroke-dasharray:none;stroke-opacity:1"
       d="m 243.15632,111.56752 -0.16933,0.21166"
       id="path13794" />
    <path
       style="fill:none;stroke:#000000;stroke-width:0.79375;stroke-linecap:butt;stroke-linejoin:miter;stroke-miterlimit:4;stroke-dasharray:none;stroke-opacity:1"
       d="m 243.24099,111.33468 -0.0847,0.23284"
       id="path13792" />
    <path
       style="fill:none;stroke:#000000;stroke-width:0.79375;stroke-linecap:butt;stroke-linejoin:miter;stroke-miterlimit:4;stroke-dasharray:none;stroke-opacity:1"
       d="m 243.28332,111.08068 -0.0423,0.254"
       id="path13790" />
    <path
       style="fill:none;stroke:#000000;stroke-width:0.79375;stroke-linecap:butt;stroke-linejoin:miter;stroke-miterlimit:4;stroke-dasharray:none;stroke-opacity:1"
       d="m 243.28332,109.53551 v 1.54517"
       id="path13788" />
    <path
       style="fill:none;stroke:#000000;stroke-width:0.79375;stroke-linecap:butt;stroke-linejoin:miter;stroke-miterlimit:4;stroke-dasharray:none;stroke-opacity:1"
       d="m 192.77027,105.27933 h -3.04702"
       id="path13784" />
    <path
       style="fill:none;stroke:#000000;stroke-width:0.79375;stroke-linecap:butt;stroke-linejoin:miter;stroke-miterlimit:4;stroke-dasharray:none;stroke-opacity:1"
       d="m 195.31028,110.86635 v -3.04702"
       id="path13782" />
    <path
       style="fill:none;stroke:#000000;stroke-width:0.79375;stroke-linecap:butt;stroke-linejoin:miter;stroke-miterlimit:4;stroke-dasharray:none;stroke-opacity:1"
       d="m 195.31028,107.81933 -2.54001,-2.54"
       id="path13780" />
    <path
       style="fill:none;stroke:#000000;stroke-width:0.79375;stroke-linecap:butt;stroke-linejoin:miter;stroke-miterlimit:4;stroke-dasharray:none;stroke-opacity:1"
       d="m 196.48087,112.03694 -1.17059,-1.17058"
       id="path13778" />
    <path
       style="fill:none;stroke:#000000;stroke-width:0.79375;stroke-linecap:butt;stroke-linejoin:miter;stroke-miterlimit:4;stroke-dasharray:none;stroke-opacity:1"
       d="m 189.74019,110.86635 v -5.81663"
       id="path13776" />
    <path
       style="fill:none;stroke:#000000;stroke-width:0.79375;stroke-linecap:butt;stroke-linejoin:miter;stroke-miterlimit:4;stroke-dasharray:none;stroke-opacity:1"
       d="m 188.56959,112.03693 1.17059,-1.17058"
       id="path13774" />
    <path
       style="fill:none;stroke:#000000;stroke-width:0.79375;stroke-linecap:butt;stroke-linejoin:miter;stroke-miterlimit:4;stroke-dasharray:none;stroke-opacity:1"
       d="m 192.4304,59.709065 c -0.52814,-0.001 -1.04428,0.27306 -1.33549,0.71458 -0.34083,0.50011 -0.36162,1.1947 -0.0457,1.71187 0.32678,0.56954 1.02657,0.89281 1.6716,0.76363 0.65428,-0.11308 1.20713,-0.66748 1.29773,-1.32818 0.10878,-0.62183 -0.19386,-1.28959 -0.7345,-1.61652 -0.2524,-0.16282 -0.55501,-0.24108 -0.85366,-0.24538 z"
       id="path13834-7" />
    <path
       style="fill:none;stroke:#000000;stroke-width:0.79375;stroke-linecap:butt;stroke-linejoin:miter;stroke-miterlimit:4;stroke-dasharray:none;stroke-opacity:1"
       d="m 190.91575,65.573915 h 3.04702"
       id="path13784-1" />
    <path
       style="fill:none;stroke:#000000;stroke-width:0.79375;stroke-linecap:butt;stroke-linejoin:miter;stroke-miterlimit:4;stroke-dasharray:none;stroke-opacity:1"
       d="m 188.37574,59.986895 v 3.04702"
       id="path13782-9" />
    <path
       style="fill:none;stroke:#000000;stroke-width:0.79375;stroke-linecap:butt;stroke-linejoin:miter;stroke-miterlimit:4;stroke-dasharray:none;stroke-opacity:1"
       d="m 188.37574,63.033915 2.54001,2.54"
       id="path13780-6" />
    <path
       style="fill:none;stroke:#000000;stroke-width:0.79375;stroke-linecap:butt;stroke-linejoin:miter;stroke-miterlimit:4;stroke-dasharray:none;stroke-opacity:1"
       d="m 187.20515,58.816305 1.17059,1.17058"
       id="path13778-6" />
    <path
       style="fill:none;stroke:#000000;stroke-width:0.79375;stroke-linecap:butt;stroke-linejoin:miter;stroke-miterlimit:4;stroke-dasharray:none;stroke-opacity:1"
       d="m 193.94583,58.521809 v 7.281718"
       id="path13776-4" />
    <path
       style="fill:none;stroke:#000000;stroke-width:0.79375;stroke-linecap:butt;stroke-linejoin:miter;stroke-miterlimit:4;stroke-dasharray:none;stroke-opacity:1"
       d="m 240.74332,106.99551 2.54,2.54001"
       id="path13772" />
    <path
       id="path13770"
       style="fill:none;stroke:#000000;stroke-width:3.00000004;stroke-linecap:butt;stroke-linejoin:miter;stroke-miterlimit:4;stroke-dasharray:none;stroke-opacity:1"
       d="M 909.89601 386.24782 L 909.89601 404.39248 "
       transform="scale(0.26458333)" />
    <path
       id="path14206"
       style="fill:none;stroke:#000000;stroke-width:0.79375;stroke-linecap:butt;stroke-linejoin:miter;stroke-miterlimit:4;stroke-dasharray:none;stroke-opacity:1"
       d="M 245.50584,78.837345 V 102.19473" />
    <path
       id="path14204"
       style="fill:none;stroke:#000000;stroke-width:3.00000004;stroke-linecap:butt;stroke-linejoin:miter;stroke-miterlimit:4;stroke-dasharray:none;stroke-opacity:1"
       d="M 909.89601 280.69242 L 909.89601 297.96792 "
       transform="scale(0.26458333)" />
    <path
       style="fill:none;stroke:#000000;stroke-width:0.79375;stroke-linecap:butt;stroke-linejoin:miter;stroke-miterlimit:4;stroke-dasharray:none;stroke-opacity:1"
       d="m 243.28332,71.726533 -2.54,2.540002"
       id="path13768" />
    <path
       style="fill:none;stroke:#000000;stroke-width:0.79375;stroke-linecap:butt;stroke-linejoin:miter;stroke-miterlimit:4;stroke-dasharray:none;stroke-opacity:1"
       d="M 243.28332,60.301817 V 71.726533"
       id="path13766" />
    <path
       style="fill:none;stroke:#000000;stroke-width:0.79375;stroke-linecap:butt;stroke-linejoin:miter;stroke-miterlimit:4;stroke-dasharray:none;stroke-opacity:1"
       d="m 241.75932,58.777816 1.524,1.524001"
       id="path13764" />
    <path
       style="fill:none;stroke:#000000;stroke-width:0.79375;stroke-linecap:butt;stroke-linejoin:miter;stroke-miterlimit:4;stroke-dasharray:none;stroke-opacity:1"
       d="m 70.918435,60.563501 c 0,0 -0.831299,-22.198724 8.234715,-23.694932 C 90.507636,34.994683 71.935108,21.13619 71.935108,21.13619"
       id="path13030"
       sodipodi:nodetypes="csc" />
    <path
       style="fill:none;stroke:#000000;stroke-width:0.79375;stroke-linecap:butt;stroke-linejoin:miter;stroke-miterlimit:4;stroke-dasharray:none;stroke-opacity:1"
       d="m 74.718644,60.563502 c 0,0 -3.199932,-19.943678 8.112005,-21.960393 11.630884,-2.073577 -5.846487,-17.921043 -5.846487,-17.921043"
       id="path13030-3"
       sodipodi:nodetypes="csc" />
    <path
       style="fill:none;stroke:#000000;stroke-width:0.79375;stroke-linecap:butt;stroke-linejoin:miter;stroke-miterlimit:4;stroke-dasharray:none;stroke-opacity:1"
       d="m 118.73635,111.7703 c 0,0 -1.62831,7.6031 4.58366,15.15231 6.21196,7.5492 0.65774,15.04447 -5.77347,16.60823 -6.43121,1.56377 -3.14252,6.57859 -3.14252,6.57859"
       id="path13266" />
    <path
       style="fill:none;stroke:#000000;stroke-width:0.79375;stroke-linecap:butt;stroke-linejoin:miter;stroke-miterlimit:4;stroke-dasharray:none;stroke-opacity:1"
       d="m 114.9361,111.7703 c 0,0 -1.62831,7.6031 4.58365,15.15231 6.21197,7.5492 0.73083,12.39577 -5.70039,13.95951 -6.4312,1.56377 -3.21559,9.22731 -3.21559,9.22731"
       id="path13266-3"
       sodipodi:nodetypes="cssc" />
    <path
       style="fill:none;stroke:#000000;stroke-width:0.79375;stroke-linecap:butt;stroke-linejoin:miter;stroke-opacity:1;stroke-miterlimit:4;stroke-dasharray:none"
       d="m 240.74331,78.837345 c 4.76253,0 4.76253,0 4.76253,0"
       id="path14242" />
    <path
       style="fill:none;stroke:#000000;stroke-width:0.79375;stroke-linecap:butt;stroke-linejoin:miter;stroke-opacity:1;stroke-miterlimit:4;stroke-dasharray:none"
       d="m 245.50584,102.19473 c -4.76253,0 -4.76253,0 -4.76253,0"
       id="path14244" />
    <path
       style="fill:none;stroke:#000000;stroke-width:0.79375;stroke-linecap:butt;stroke-linejoin:miter;stroke-opacity:1;stroke-miterlimit:4;stroke-dasharray:none"
       d="m 167.18258,58.777819 c 20.02257,0.03849 20.02257,0.03849 20.02257,0.03849"
       id="path16025" />
    <path
       style="fill:none;stroke:#000000;stroke-width:0.79375;stroke-linecap:butt;stroke-linejoin:miter;stroke-opacity:1;stroke-miterlimit:4;stroke-dasharray:none"
       d="m 166.17833,59.793816 c 5.3e-4,3.246422 5.3e-4,3.246422 5.3e-4,3.246422"
       id="path16226" />
    <path
       style="fill:none;stroke:#000000;stroke-width:0.79375;stroke-linecap:butt;stroke-linejoin:miter;stroke-opacity:1;stroke-miterlimit:4;stroke-dasharray:none"
       d="m 166.17923,87.241569 c -7.9e-4,23.839111 -7.9e-4,23.839111 -7.9e-4,23.839111"
       id="path16228" />
  </g>
</svg>
